<svg width="337" height="77" fill="none" xmlns="http://www.w3.org/2000/svg"><path d="M69.5 27.61c0 .99-.66 1.65-1.32 1.65h-16.5c-.99 0-1.65-.66-1.65-1.65v-.66c2.31-3.96 6.6-6.93 12.21-6.93 5.61 0 8.25 3.63 7.59 7.92l-.33-.33zM45.08 44.44h59.73a3.299 3.299 0 003.3-2.31C118.01 16.06 98.54.22 67.52.22 38.81.22 10.76 15.4 2.18 39.49-6.73 64.57 15.05 76.12 43.1 76.12c19.8 0 44.88-7.26 57.75-23.1l.33-.99c0-.66-.66-1.65-1.65-1.65H62.24a3.3 3.3 0 00-2.64 1.32 13.2 13.2 0 01-9.9 4.62c-8.58 0-8.25-5.61-6.6-11.22.66-.99 1.32-1.32 1.98-1.32v.66zm58.08 25.74c-.66 0-1.32-.66-1.32-1.32l.66-1.32 18.48-16.83c.66-.66 1.65-.99 2.31-.99l1.32.33h.33c8.25 3.96 18.48 6.6 30.69 6.6 0 0 13.53-.66 14.52-3.96 1.32-3.3-5.61-3.3-9.9-3.96l-10.56-.99c-19.8-1.65-35.31-7.92-31.68-19.14 5.28-16.83 39.6-26.4 70.62-26.4 15.18 0 28.71 1.65 40.92 5.28.66.33.99.99.99 1.65v1.32l-16.5 15.18s-1.32.99-2.31.99h-1.32c-7.59-2.64-16.17-4.95-26.4-4.95-4.62 0-11.55.99-12.54 3.96-.66 2.64 5.61 3.3 9.57 3.63l11.22 1.32c21.45 2.31 35.64 8.25 31.68 20.46-5.61 17.16-39.6 25.74-70.62 25.74-16.83 0-35.64-2.31-50.16-5.94v-.66zm180.18-21.12c-.66 0-1.32.33-1.32.99l-6.6 20.79a3.302 3.302 0 01-3.3 2.31h-45.21c-.99 0-1.65-.99-1.65-1.65v-.66l20.13-64.35a3.301 3.301 0 013.3-2.31h86.46c.99 0 1.65.99 1.65 1.65v.66l-4.95 15.18a3.303 3.303 0 01-2.97 2.31h-37.95c-.66 0-1.32.33-1.32.99l-1.32 3.96v.66c0 .99.66 1.65 1.65 1.65h32.01c.66 0 1.32.66 1.32 1.65v.66l-4.29 13.86a3.3 3.3 0 01-3.3 1.98h-32.67v-.33" fill="#CC0900"/></svg>